<svg id="Layer_1" data-name="Layer 1" xmlns="http://www.w3.org/2000/svg" viewBox="0 0 526.77 505.4"><defs><style>.cls-1{fill:#fff;}</style></defs><path class="cls-1" d="M408.06,147.74c.68.62,1.52.36,2.29.37A260.37,260.37,0,0,1,652,329.9c.84,2.67.14,4.52-1.93,5.18s-3.71-.32-4.58-3.06a254.22,254.22,0,0,0-177.9-169,243.94,243.94,0,0,0-58.47-8c-62.46-1-118.06,18.17-166.36,57.71C203.47,244.8,176.48,285.47,161.37,334c-.11.34-.22.69-.35,1-.78,1.95-2.25,2.76-4.1,2.29a3.06,3.06,0,0,1-2.39-4c.64-2.75,1.54-5.44,2.44-8.11a256.93,256.93,0,0,1,60-98.16q54.82-56.22,131.57-73.16a244.31,244.31,0,0,1,49.4-5.76,3,3,0,0,0,1.88-.38Z" transform="translate(-139.15 -147.74)"/><path class="cls-1" d="M401.52,653.14c-2.33-1.07-4.79-1.85-6.67-3.81a12.44,12.44,0,1,1,13.2,2.94c-.73.28-1.61.17-2.17.87Zm2.11-18a5.65,5.65,0,0,0-5.52,5.6,5.86,5.86,0,0,0,5.69,5.5,5.79,5.79,0,0,0,5.5-5.66A5.61,5.61,0,0,0,403.63,635.1Z" transform="translate(-139.15 -147.74)"/><path class="cls-1" d="M556.5,606.55c-5.71,0-12.7-2.07-19.44-5.08a3.18,3.18,0,0,0-3.54.29,230.4,230.4,0,0,1-43.21,22.79c-3.33,1.34-5.33,1-6.19-1.17s.21-3.83,3.53-5.16a232.65,232.65,0,0,0,38.63-19.88c1.54-1,1.77-1.45,0-2.47a220,220,0,0,1-23.7-16.22,2.41,2.41,0,0,0-3.23-.15A186.29,186.29,0,0,1,429.1,605c-38.78,5.71-76,.37-111.51-16.43-4.06-1.92-8-4.06-11.95-6.25a2.83,2.83,0,0,0-3.66.17,196.85,196.85,0,0,1-20.49,14c-1.51.87-1.22,1.29,0,2.1a229,229,0,0,0,39.68,20.21c.4.15.82.29,1.22.46,2.18.93,3.07,2.72,2.31,4.67-.68,1.76-2.62,2.53-4.72,1.75-6.25-2.33-12.36-5-18.36-7.93a221.31,221.31,0,0,1-27.16-15.58,3,3,0,0,0-3.36-.26,51.82,51.82,0,0,1-20.71,5.29c-11.06.28-20-4.33-27.79-11.89a261.18,261.18,0,0,1-63.56-97.93c-.12-.34-.25-.68-.36-1-.64-2.1.2-4,2-4.64a3.45,3.45,0,0,1,4.47,2.39c2.15,5.93,4.49,11.78,7.08,17.54a252,252,0,0,0,49.62,73.09c2.22,2.29,4.47,4.57,6.78,6.77,9.17,8.72,19.86,10.82,31.81,7.12,1.77-.55,4.66-.73,4.92-2.11s-2.45-2.41-3.89-3.52a235,235,0,0,1-63.84-75.08,19.44,19.44,0,0,1-1.11-2.12,3.44,3.44,0,0,1,1.47-4.34,3.48,3.48,0,0,1,4.58,1.2c1,1.59,1.83,3.3,2.75,4.94a228.36,228.36,0,0,0,66.25,74.33,3,3,0,0,0,3.84.16,232.73,232.73,0,0,0,20.32-13.46c1.52-1.09,1.06-1.54-.21-2.36a189.46,189.46,0,0,1-31.85-26,191.62,191.62,0,0,1-37-52.88c-1.19-2.52-.71-4.51,1.26-5.4s3.74,0,4.95,2.49a186.16,186.16,0,0,0,68,77c1.78,1.16,2.89,1.07,4.51-.2,13.5-10.54,26.82-21.32,41.16-30.74,11.13-7.32,22.76-13.64,35.58-17.57,19.11-5.85,37.53-3.48,55.52,4.51,14,6.23,26.69,14.64,39,23.72,7.76,5.75,15.4,11.65,23,17.57a2.52,2.52,0,0,0,3.56.14,186,186,0,0,0,63.92-74.15c.12-.26.25-.53.38-.79,1.11-2.22,2.85-3,4.72-2.2s2.54,2.8,1.43,5.16c-1.36,2.88-2.75,5.75-4.26,8.56a191.45,191.45,0,0,1-60.26,67.63c-1.55,1.08-1.8,1.55-.12,2.77a245.35,245.35,0,0,0,23.73,15.77,2.87,2.87,0,0,0,3.65-.25,228,228,0,0,0,67.4-77,22.22,22.22,0,0,1,1.15-2.09,3.23,3.23,0,0,1,4.36-1.28,3.16,3.16,0,0,1,1.78,4,8.94,8.94,0,0,1-.88,2,233.85,233.85,0,0,1-65.79,77c-.41.3-.8.63-1.22.91-1.07.7-1.1,1.17.2,1.66a42.19,42.19,0,0,0,15.69,3.07c9.2-.15,16.23-4.67,22.49-10.9a254.08,254.08,0,0,0,60.12-93.27c.2-.54.38-1.1.62-1.63a3.48,3.48,0,0,1,4.37-2.22,3.42,3.42,0,0,1,2,4.63c-1.46,4-3,8-4.61,12a260.09,260.09,0,0,1-59.31,87C577.39,602.42,568.73,606.63,556.5,606.55Zm-155.69-6.16a204.86,204.86,0,0,0,26.23-2,184.46,184.46,0,0,0,66.29-23.22c1.56-.9,1.58-1.39.16-2.46-7.32-5.48-14.5-11.15-21.87-16.56-12.48-9.17-25.37-17.66-39.78-23.57-14.06-5.76-28.45-7.82-43.41-4.12-12.84,3.18-24.38,9.19-35.45,16.2-14.75,9.34-28.25,20.38-42,31-2,1.56,0,1.77.79,2.17C339.23,592.83,368.67,600.18,400.81,600.39Z" transform="translate(-139.15 -147.74)"/><path class="cls-1" d="M513.15,409.15c0-13.29,0-26.57,0-39.86,0-2.11-.39-3-2.71-2.84-5.32.32-5-1.21-6.18,5.34q-7.12,37.83-14.19,75.65c-1.66,8.83-3.35,17.66-4.94,26.5-.24,1.32-.64,1.83-2.06,1.82q-9.14-.12-18.29,0c-1.36,0-1.92-.44-2.16-1.73q-3.48-18.6-7-37.18-6.34-33.64-12.7-67.3c-.56-3-.71-3.05-3.89-3.05-4.51,0-4.51,0-4.51,4.43,0,26.14,0,52.28-.05,78.42,0,2.09.5,2.71,2.63,2.64,4.64-.18,9.29,0,13.94-.09,1.46,0,1.82.47,1.81,1.86q-.09,10.14,0,20.26c0,1.33-.38,1.73-1.72,1.73q-25.28-.06-50.54,0c-1.19,0-1.66-.29-1.65-1.57q.09-9.69,0-19.38c0-1.42.58-1.72,1.81-1.69,2.47,0,4.94,0,7.41,0,3.85,0,4.69-.87,4.7-4.79,0-7.62,0-15.25,0-22.87,0-18.74,0-37.47.06-56.2,0-2.26-.64-2.9-2.82-2.78-3,.17-6.1,0-9.14.06-1.45,0-2.05-.34-2-1.93.09-6.61.07-13.22,0-19.82,0-1.39.36-1.92,1.82-1.91,15.9,0,31.8,0,47.7.06,4.81,0,8.14,2.66,10.43,6.75s3,8.74,3.91,13.29q5.15,26.34,10.23,52.71c.07.36.16.71.26,1.06s0,.84.41.85.48-.48.55-.84q.9-4.58,1.78-9.17,4.81-24.75,9.64-49.51a26,26,0,0,1,3.41-9.12,12,12,0,0,1,10.65-6.06c15.61,0,31.23,0,46.84,0,1.52,0,2.17.31,2.14,2q-.15,9.8,0,19.6c0,1.73-.62,2.07-2.14,2-3.27-.08-6.54,0-9.81,0-1.49,0-2,.47-2,2q.06,40.18,0,80.38c0,3.23,1,4.17,4.15,4.23q3.93.09,7.84,0c1.33,0,1.94.29,1.92,1.81q-.11,9.59,0,19.17c0,1.4-.5,1.68-1.77,1.68q-25.15-.06-50.32,0c-1.44,0-1.83-.44-1.82-1.85q.09-10,0-20c0-1.5.38-2,1.93-2,4.79.09,9.58,0,14.37.07,1.66,0,2.07-.48,2.06-2.08C513.12,436.31,513.15,422.73,513.15,409.15Zm6-.07c0,15.83,0,31.66,0,47.48,0,1.8-.49,2.39-2.31,2.34-4.72-.11-9.44,0-14.16,0-1.39,0-2,.47-1.89,1.9a42.76,42.76,0,0,1,0,5.66c-.18,2,.66,2.44,2.5,2.42,6.68-.09,13.36,0,20,0,5.8,0,11.61,0,17.42,0,1.51,0,2.09-.49,2-2-.1-1.73-.06-3.48,0-5.22,0-1.11-.35-1.59-1.5-1.54-1.45.06-2.91.06-4.36,0-4.57-.19-6.93-2.22-7.74-6.69a20.12,20.12,0,0,1-.29-3.46c0-8.79,0-17.57,0-26.36,0-20.47,0-40.95-.05-61.42,0-2.16.6-2.7,2.66-2.58,3.11.18,6.24,0,9.36.08,1.55,0,2-.5,2-2a35.28,35.28,0,0,1,0-5.44c.19-2-.6-2.4-2.46-2.39-12.78.08-25.56,0-38.34,0-5.14,0-7.53,1.65-9.29,6.5a24.49,24.49,0,0,0-1,3.78q-8.52,45.07-17,90.15c-.12.67,0,1.72-.83,1.75-.59,0-.57-1-.68-1.63q-7.94-42.09-15.83-84.18c-.69-3.62-1-7.33-2.56-10.76-1.39-3.11-3.51-5.52-7.13-5.55-13.72-.1-27.44,0-41.16-.07-1.13,0-1.55.4-1.52,1.53.05,2.17.07,4.35,0,6.53-.06,1.35.47,1.76,1.77,1.73,3.27-.07,6.54.1,9.8-.07,1.94-.1,2.4.49,2.39,2.4q-.09,44.11-.06,88.22a20.29,20.29,0,0,1-.41,3.88,6.7,6.7,0,0,1-5.73,5.75,32.51,32.51,0,0,1-6.07.25c-1.17,0-1.74.31-1.69,1.59.08,1.81.09,3.63,0,5.45-.06,1.37.57,1.74,1.82,1.74q19.17,0,38.34,0c1.28,0,1.84-.43,1.79-1.78a58.9,58.9,0,0,1,0-6.09c.1-1.68-.6-2.12-2.16-2.09-4.06.08-8.13,0-12.2,0s-4,0-4-3.86V430.82q0-34.2,0-68.39c0-3.32-.28-2.83,2.95-2.86,3,0,6,0,8.93,0,5.59,0,7,1.11,8.05,6.63q5.26,27.54,10.47,55.1c2.89,15.23,5.81,30.46,8.65,45.71.26,1.37.81,1.83,2.14,1.8,2.54-.07,5.08-.13,7.62,0,1.87.11,2.63-.52,3-2.41q7.83-42.21,15.8-84.4c1.1-5.84,2.18-11.69,3.48-17.48.85-3.8,2.61-5,6.54-5,3.48,0,7,.12,10.45-.05,2-.09,2.54.52,2.52,2.51C519.08,377.71,519.12,393.4,519.12,409.08Z" transform="translate(-139.15 -147.74)"/><path class="cls-1" d="M622.6,342.88c12.19,0,24.39,0,36.59,0,1.89,0,2.46.48,2.45,2.43-.1,11.83-.08,23.67,0,35.5,0,1.7-.44,2.23-2.17,2.19-5.52-.11-11-.12-16.56,0-1.8,0-2.16-.6-2.12-2.23.1-4.06,0-8.13.06-12.2,0-1.44-.32-2.07-1.91-2.06q-24.84.06-49.67,0a5.82,5.82,0,0,0-5.71,3.93,26.49,26.49,0,0,0,0,21.35c1.18,2.78,3.39,3.87,6.43,3.85,14.67-.06,29.34.12,44-.07,11.85-.15,20.24,5.27,25.88,15.31,5.18,9.21,6.64,19.24,5.85,29.66a47.41,47.41,0,0,1-5.5,19.53c-5.67,10.26-14.17,15.74-26.13,15.7q-34.85-.13-69.7,0c-2,0-2.56-.48-2.54-2.5.1-10.75.08-21.49,0-32.24,0-1.66.37-2.25,2.15-2.21,5.59.12,11.18.1,16.77,0,1.56,0,2,.47,1.93,2-.11,3.12,0,6.25-.05,9.37,0,1.25.26,1.79,1.66,1.79,16.78,0,33.55,0,50.32,0,3,0,5.06-1.66,6.51-4.1,2.68-4.46,3.31-9.38,2.92-14.47a23.46,23.46,0,0,0-2-8.19c-1.81-3.92-4.66-6-9.2-6-14.37.11-28.75-.18-43.12.11-11.47.23-19.73-4.81-24.59-14.76-7.83-16.06-7.83-32.42.72-48.26,4.89-9.07,12.78-13.65,23.39-13.44C600.37,343.05,611.49,342.88,622.6,342.88Zm-15.11,116c-9.44,0-18.88,0-28.31,0-1.92,0-2.65-.64-2.49-2.53.11-1.3,0-2.62,0-3.92,0-6.89,0-6.85-6.9-6.68-1.52,0-2,.51-2,2,.08,5.66,0,11.32,0,17,0,4,0,4,4,4,4.5,0,4.5,0,4.79-4.41a1.55,1.55,0,0,0,0-.22c0-1,.32-1.19,1.12-.58,1.45,1.09,3,2.08,4.34,3.28a8.39,8.39,0,0,0,6,2q22.77-.13,45.53,0c9.54,0,16.67-4.15,21.1-12.49,6.47-12.2,6.8-24.89,1.76-37.62-4.48-11.35-12-16.16-24.17-16.16-14.08,0-28.17-.16-42.25.07-6.12.1-10-2.63-12.17-8a34.68,34.68,0,0,1,.21-27.52c2.14-5,5.88-8,11.74-7.57,1.8.13,3.62,0,5.44,0,16.26,0,32.53,0,48.79,0,2,0,2.79.54,2.68,2.59a71.84,71.84,0,0,0,0,7.19c.09,2.14-1,4.9.51,6.25s4.18.27,6.34.44c1.49.12,2-.42,2-2-.08-5.81,0-11.62,0-17.42,0-2.17.93-5-.36-6.31-1.49-1.47-4.41-.3-6.7-.5-1.28-.11-1.87.33-1.78,1.7s0,2.62,0,3.92c0,.28,0,.67-.18.8-.39.31-.65-.14-.88-.37-1.45-1.42-3-2.8-4.29-4.33a5,5,0,0,0-4.17-1.75c-15.82.07-31.65.16-47.48,0-8.87-.08-15.28,3.81-19.24,11.46-6.45,12.43-6.55,25.25-.85,38,4,8.83,10.78,13.36,20.81,13.17,14.22-.26,28.46.06,42.69-.12,6.45-.08,11,2.72,13.61,8.29a33.68,33.68,0,0,1,0,30.42c-2.58,5.3-6.92,8.1-13.12,8C624.92,458.73,616.21,458.86,607.49,458.86Z" transform="translate(-139.15 -147.74)"/><path class="cls-1" d="M376.65,414.3q0,16.88,0,33.76c0,3.9.91,4.85,4.84,5a35.74,35.74,0,0,0,4.14,0c1.57-.12,1.95.55,1.94,2q-.1,9.38,0,18.73c0,1.58-.53,1.92-2,1.91q-27.87-.06-55.75,0c-1.37,0-1.89-.32-1.87-1.8q.1-10.12,0-20.25c0-1.48.5-1.8,1.87-1.79,7.63,0,15.25,0,22.87.06,1.74,0,2.37-.35,2.35-2.24q-.15-14,0-28.09c0-1.76-.53-2.16-2.2-2.15q-27,.08-54,0c-2,0-2.39.65-2.38,2.48.09,9.15.12,18.3,0,27.44,0,2.19.69,2.62,2.71,2.59,7.48-.12,14.95,0,22.43-.08,1.54,0,2,.45,2,2-.08,6.67-.07,13.35,0,20,0,1.4-.39,1.86-1.84,1.85q-28-.06-56,0c-1.46,0-1.83-.46-1.81-1.85q.09-9.37,0-18.73c0-1.47.33-2.12,1.92-2a36.46,36.46,0,0,0,4.79,0c3.24-.17,4.21-1.21,4.21-4.48,0-21.56,0-43.12,0-64.68a67.8,67.8,0,0,1,2.78-19.53c3.85-12.68,12.51-19.65,25.47-21.48,11.41-1.62,22.9-.57,34.35-.84a62.56,62.56,0,0,1,10.41.75c15.2,2.25,23.74,10.2,27,25.16a74.76,74.76,0,0,1,1.76,16.19Q376.64,399.28,376.65,414.3Zm-6,2c0-9.59,0-19.17,0-28.75a80.8,80.8,0,0,0-1.33-15.37c-2.53-13.24-10.39-21-23.65-22.36a187.63,187.63,0,0,0-40.62.09c-11.14,1.26-18.58,7.49-21.87,18.41A55.21,55.21,0,0,0,280.92,384c-.11,21.78-.09,43.56-.12,65.35,0,.94,0,1.89-.06,2.83-.38,4.17-2.44,6.5-6.11,7.5-1.55.42-3.76-.53-4.53,1.08-.65,1.38-.17,3.28-.19,5a3.09,3.09,0,0,1,0,.43c-.34,2.11.56,2.7,2.65,2.69,13.58-.09,27.15,0,40.73,0,.87,0,1.75,0,2.61,0,1.21.07,1.7-.41,1.65-1.65a56.23,56.23,0,0,1,0-6.09c.12-1.76-.54-2.23-2.22-2.22-7.55.07-15.1,0-22.65.06-1.66,0-2.23-.42-2.22-2.18q.11-20.91,0-41.82c0-1.8.47-2.34,2.29-2.34q32.89.09,65.78,0c1.86,0,2.48.43,2.47,2.41q-.13,20.69,0,41.38c0,2-.53,2.59-2.54,2.57-7.47-.11-15,0-22.43-.07-1.6,0-2.23.49-2.12,2.13a31.37,31.37,0,0,1,0,5.22c-.21,2.17.68,2.66,2.72,2.64,12.78-.08,25.55,0,38.33-.06,2.09,0,4.78.9,6.11-.41s.26-4.13.5-6.27c.18-1.59-.36-2-2-2.12-6.19-.33-8.82-3.22-8.89-9.44,0-.51,0-1,0-1.53Z" transform="translate(-139.15 -147.74)"/><path class="cls-1" d="M182.76,475.77c-13.72,0-27.44,0-41.16,0-1.93,0-2.48-.52-2.45-2.43.12-6.24.1-12.49,0-18.73,0-1.74.58-2.28,2.26-2.21,2.68.11,5.37.06,8.06,0,2.43,0,3.27-.87,3.29-3.3,0-3.92,0-7.84,0-11.76,0-22.72,0-45.44.05-68.16,0-2.28-.68-2.89-2.83-2.77-3,.16-6.09,0-9.14.05-1.19,0-1.69-.41-1.68-1.64,0-6.83.05-13.65,0-20.47,0-1.81,1.05-1.73,2.27-1.73h22.65c18.37,0,36.74.29,55.1-.08,16.93-.33,25.84,9.54,30.21,20.48,5.71,14.31,5.56,28.58-1.19,42.58a2.66,2.66,0,0,0,.18,2.77c9,16.81,9.35,33.93.72,50.84-5.61,11-15.1,16.51-27.59,16.51Zm-24-68.8v14.37q0,15.46,0,30.93c0,5.07-2.27,7.3-7.32,7.33-1.53,0-3.06.08-4.57,0s-2.13.35-2,1.93a32.1,32.1,0,0,1,0,5c-.16,1.87.64,2.31,2.38,2.31,24.61,0,49.22,0,73.83-.05,11.41,0,19.44-5.53,24.14-15.81a44.9,44.9,0,0,0,3.14-27.22c-1.23-6.77-3.48-13.05-9.13-17.51-1.15-.91-.24-1.32.28-1.81a20.52,20.52,0,0,0,5.28-8.15c4.47-12.78,3.43-25.14-3.34-36.86A22.12,22.12,0,0,0,225,350.05a23.91,23.91,0,0,0-3.69-.23q-37,0-74-.05c-1.88,0-2.62.43-2.44,2.4a42.75,42.75,0,0,1,0,5.66c-.05,1.31.4,1.79,1.74,1.76,3.27-.08,6.54.09,9.8-.07,1.87-.08,2.44.39,2.43,2.37C158.72,376.92,158.76,391.94,158.76,407Z" transform="translate(-139.15 -147.74)"/><path class="cls-1" d="M400.29,221.76c50.94.7,95.2,18.13,132.33,53.18a188,188,0,0,1,40.94,56.66c.7,1.47,1,2.87,0,4.3a3.31,3.31,0,0,1-3.47,1.28c-1.69-.25-2.29-1.63-2.91-2.95a170.44,170.44,0,0,0-15.8-27c-29.58-41-69.07-67.14-119-75.6-60.65-10.29-114,6.08-159.39,47.78C256,295,242.9,313.68,233,334.54a4.66,4.66,0,0,1-1.77,2.4,3.25,3.25,0,0,1-4-.37,3.3,3.3,0,0,1-.77-4.16,155,155,0,0,1,8.94-16.91c29.59-48,71.88-78.2,127.09-90A175.4,175.4,0,0,1,400.29,221.76Z" transform="translate(-139.15 -147.74)"/><path class="cls-1" d="M400.48,179.5c58.57.77,109.93,20.27,153.72,59.36.49.44,1,.87,1.42,1.35a3.5,3.5,0,0,1,.27,4.73,3.32,3.32,0,0,1-4.86.28c-2.89-2.42-5.65-5-8.56-7.41A220.4,220.4,0,0,0,440.6,190,214.94,214.94,0,0,0,384,187q-75.17,6-131.74,55.94c-.82.72-1.6,1.49-2.43,2.18a3.44,3.44,0,1,1-4.66-5.05c2.56-2.36,5.17-4.67,7.84-6.9A229.29,229.29,0,0,1,400.48,179.5Z" transform="translate(-139.15 -147.74)"/><path class="cls-1" d="M220.23,255.54a12.45,12.45,0,1,1-12.35,12.54A12.53,12.53,0,0,1,220.23,255.54ZM214.8,268a5.73,5.73,0,0,0,5.56,5.59,5.59,5.59,0,1,0,0-11.18A5.69,5.69,0,0,0,214.8,268Z" transform="translate(-139.15 -147.74)"/><path class="cls-1" d="M598.85,267.88a12.44,12.44,0,0,1-12.37,12.55,12.45,12.45,0,1,1,12.37-12.55Zm-6.85.17a5.69,5.69,0,0,0-5.47-5.66,5.59,5.59,0,0,0-.17,11.18A5.8,5.8,0,0,0,592,268.05Z" transform="translate(-139.15 -147.74)"/><path class="cls-1" d="M623.67,328.45c-.17,1.82-.93,3.09-2.64,3.45a3.37,3.37,0,0,1-4.13-2.34c-1.55-3.9-3-7.83-4.67-11.7A209.47,209.47,0,0,0,600,293.58c-.91-1.57-1.18-3.17.1-4.63a3.24,3.24,0,0,1,3.77-.89,3.5,3.5,0,0,1,1.89,1.7,228.91,228.91,0,0,1,17.51,37.35C623.47,327.58,623.57,328.08,623.67,328.45Z" transform="translate(-139.15 -147.74)"/><path class="cls-1" d="M187.93,331.07c-3,0-4.4-2.36-3.38-5.16,2.39-6.54,5.12-12.93,8.11-19.21,2.65-5.57,5.54-11,8.63-16.34,1.37-2.38,3.24-3.14,5.15-2.12s2.21,3.14.85,5.49a226.38,226.38,0,0,0-16.22,34.36C190.43,329.79,189.5,331,187.93,331.07Z" transform="translate(-139.15 -147.74)"/><path class="cls-1" d="M325.71,402.53c-11,0-21.92-.06-32.89.05-2,0-2.42-.59-2.35-2.44.26-6.89-.32-13.79.42-20.67A34,34,0,0,1,292.8,371c3-7.88,9.14-11.54,17.14-11.83,10.08-.36,20.18-.34,30.27-.08,10.93.29,17.69,6.45,19.88,17.19,1.25,6.12.74,12.28.87,18.44,0,2-.09,3.92,0,5.88.09,1.53-.43,2-2,1.95-6.82-.08-13.65,0-20.47,0Zm.08-6.93h27c1,0,2.26.3,2.22-1.5-.11-4.71.2-9.43-.52-14.12-1.31-8.56-6.57-13.72-14.91-13.94q-13.92-.34-27.87,0c-8,.2-12.87,4.63-14.41,12.49-.94,4.81-.72,9.67-.86,14.53-.06,2,.58,2.6,2.57,2.58C307.93,395.54,316.86,395.59,325.79,395.6Z" transform="translate(-139.15 -147.74)"/><path class="cls-1" d="M197.66,412.38h25.26c7.68,0,12.4,3,14.78,10.34C241,433,240,442.93,233.87,452a15.08,15.08,0,0,1-13.32,6.87q-24.83-.11-49.64,0c-2,0-2.57-.58-2.57-2.57,0-13.64-.09-27.28-.16-40.92,0-3,0-3,3.13-3Zm2.74,7.14c-7.91,0-15.82,0-23.73,0-1.58,0-2.29.24-2.27,2.09.1,9.43.08,18.87,0,28.3,0,1.6.4,2.1,2.05,2.09q22.2-.09,44.41,0a9.17,9.17,0,0,0,7.9-3.84c5.12-7.21,6.12-15.06,2.88-23.29-1.4-3.55-4.19-5.36-8.18-5.32C215.78,419.58,208.09,419.52,200.4,419.52Z" transform="translate(-139.15 -147.74)"/><path class="cls-1" d="M198,402.53c-9.14,0-18.29,0-27.43,0-1.76,0-2.19-.55-2.18-2.22q.07-19.26,0-38.53c0-1.83.54-2.3,2.33-2.29,16.7.06,33.39.1,50.08,0a12.9,12.9,0,0,1,11.47,5.89c6,9,7.14,18.87,3.66,29.07-2,5.78-5.7,8-11.79,8Zm2.57-6.94v.09c7.77,0,15.53-.08,23.3,0,3.21.06,5.4-1.26,6.4-4.16a23,23,0,0,0-3.07-21.88,6.6,6.6,0,0,0-5.59-2.88c-15-.09-29.89-.17-44.84-.33-1.78,0-2.36.47-2.34,2.31q.15,12.2,0,24.38c0,1.89.47,2.5,2.41,2.48C184.72,395.53,192.63,395.59,200.54,395.59Z" transform="translate(-139.15 -147.74)"/></svg>