<svg id="Layer_1" data-name="Layer 1" xmlns="http://www.w3.org/2000/svg" viewBox="0 0 314.5 382.5"><defs><style>.cls-1{fill:none;stroke:#000;stroke-miterlimit:10;stroke-width:22px;}</style></defs><path class="cls-1" d="M244,0V66.76A23.23,23.23,0,0,0,267.24,90H333" transform="translate(-29.5 11)"/><path class="cls-1" d="M157.5,53.5H57.78A17.28,17.28,0,0,0,40.5,70.78V343.22A17.28,17.28,0,0,0,57.78,360.5H229.22a17.28,17.28,0,0,0,17.28-17.28V142.5Z" transform="translate(-29.5 11)"/><path class="cls-1" d="M157.5,53.5v66.76a23.23,23.23,0,0,0,23.24,23.24H246.5" transform="translate(-29.5 11)"/><path class="cls-1" d="M244,0H144.28A17.28,17.28,0,0,0,127,17.28V53.5h30.5l89,89V307h69.22A17.28,17.28,0,0,0,333,289.72V89Z" transform="translate(-29.5 11)"/></svg>