<svg id="Layer_11" data-name="Layer 11" xmlns="http://www.w3.org/2000/svg" viewBox="0 0 44 64"><defs><style>.cls-1{fill:#c64600;}.cls-2{fill:none;stroke:#c64600;stroke-linejoin:round;stroke-width:2px;}</style></defs><path class="cls-1" d="M35,2,54,21V61a1,1,0,0,1-1,1H15a1,1,0,0,1-1-1V3.06A1.07,1.07,0,0,1,15.06,2H35m.83-2H15.06A3.06,3.06,0,0,0,12,3.06V61a3,3,0,0,0,3,3H53a3,3,0,0,0,3-3V20.15L35.85,0Z" transform="translate(-12)"/><line class="cls-2" x1="10" y1="31" x2="34" y2="31"/><line class="cls-2" x1="10" y1="37" x2="34" y2="37"/><line class="cls-2" x1="10" y1="43" x2="34" y2="43"/><line class="cls-2" x1="10" y1="49" x2="28" y2="49"/><path class="cls-1" d="M38,4.83,51.17,18H39.52A1.52,1.52,0,0,1,38,16.48V4.83M36,0V16.48A3.51,3.51,0,0,0,39.52,20H56L36,0Z" transform="translate(-12)"/></svg>