<svg id="Layer_4" data-name="Layer 4" xmlns="http://www.w3.org/2000/svg" viewBox="0 0 60 58"><defs><style>.cls-1{fill:#303030;}.cls-2,.cls-4{fill:none;}.cls-2,.cls-3,.cls-4{stroke:#303030;stroke-width:2px;}.cls-2,.cls-3{stroke-miterlimit:10;}.cls-3{fill:#c64600;}.cls-4{stroke-linejoin:round;}</style></defs><path class="cls-1" d="M22,6l0,30L2,36,2,6H22m0-2H2A2,2,0,0,0,0,6V36a2,2,0,0,0,2,2H22a2,2,0,0,0,2-2V6a2,2,0,0,0-2-2Z" transform="translate(0 -4)"/><line class="cls-2" x1="4" y1="17" x2="20" y2="17"/><line class="cls-2" x1="4" y1="9" x2="20" y2="9"/><line class="cls-2" x1="4" y1="25" x2="20" y2="25"/><rect class="cls-2" x="29" y="24" width="30" height="24" rx="1.94"/><rect class="cls-3" x="32" y="27" width="24" height="18" rx="1"/><rect class="cls-2" x="42" y="48" width="4" height="6"/><polyline class="cls-4" points="46 51 52 51 56 57 32 57 36 51 42 51"/><path class="cls-2" d="M14.3,50.79c2.1,3.09,6,5.71,13.2,5.71" transform="translate(0 -4)"/><polygon class="cls-1" points="8.82 50.59 12 37 22.19 46.55 8.82 50.59"/><path class="cls-2" d="M45.13,14.71C43,11.62,39.13,9,31.93,9" transform="translate(0 -4)"/><polygon class="cls-1" points="50.61 6.91 47.43 20.5 37.24 10.95 50.61 6.91"/></svg>