<svg id="Layer_9" data-name="Layer 9" xmlns="http://www.w3.org/2000/svg" viewBox="0 0 64 53.5"><defs><style>.cls-1{fill:#303030;}.cls-2{fill:none;stroke:#303030;stroke-miterlimit:10;stroke-width:2px;}.cls-3{fill:#c64600;}</style></defs><path class="cls-1" d="M22,6l0,30L2,36,2,6H22m0-2H2A2,2,0,0,0,0,6V36a2,2,0,0,0,2,2H22a2,2,0,0,0,2-2V6a2,2,0,0,0-2-2Z" transform="translate(0 -4)"/><line class="cls-2" x1="4" y1="17" x2="20" y2="17"/><line class="cls-2" x1="4" y1="9" x2="20" y2="9"/><line class="cls-2" x1="4" y1="25" x2="20" y2="25"/><path class="cls-2" d="M14.3,50.79c2.1,3.09,6,5.71,13.2,5.71" transform="translate(0 -4)"/><polygon class="cls-1" points="8.82 50.59 12 37 22.19 46.55 8.82 50.59"/><path class="cls-2" d="M45.13,14.71C43,11.62,39.13,9,31.93,9" transform="translate(0 -4)"/><polygon class="cls-1" points="50.61 6.91 47.43 20.5 37.24 10.95 50.61 6.91"/><path class="cls-3" d="M31.69,53a6.54,6.54,0,0,1-1.53-12.89,1,1,0,0,0,.67-.54,1,1,0,0,0,0-.87,8.15,8.15,0,0,1,14.62-7.2,1,1,0,0,0,.64.52,1,1,0,0,0,.25,0,1,1,0,0,0,.56-.17,6.48,6.48,0,0,1,3.65-1.11,6.55,6.55,0,0,1,6.54,6.54,6.8,6.8,0,0,1-.19,1.52,1,1,0,0,0,.14.77,1,1,0,0,0,.65.44,6.54,6.54,0,0,1-1.22,13Z" transform="translate(0 -4)"/><path class="cls-1" d="M38.15,28A7.1,7.1,0,0,1,44.54,32a2,2,0,0,0,1.28,1,2.22,2.22,0,0,0,.51.06,2,2,0,0,0,1.12-.34,5.54,5.54,0,0,1,8.63,4.6,5.22,5.22,0,0,1-.16,1.28,2,2,0,0,0,.27,1.56,2,2,0,0,0,1.3.87,5.54,5.54,0,0,1-1,11H31.69a5.54,5.54,0,0,1-1.3-10.92A2,2,0,0,0,31.73,40a2,2,0,0,0,0-1.72A7.14,7.14,0,0,1,38.15,28m0-2a9.14,9.14,0,0,0-8.23,13.14A7.53,7.53,0,0,0,31.69,54H56.46a7.54,7.54,0,0,0,1.4-14.94,7.23,7.23,0,0,0,.22-1.75,7.55,7.55,0,0,0-11.75-6.26A9.16,9.16,0,0,0,38.15,26Z" transform="translate(0 -4)"/></svg>