<svg id="Layer_5" data-name="Layer 5" xmlns="http://www.w3.org/2000/svg" viewBox="0 0 60.92 66"><defs><style>.cls-1,.cls-2{fill:none;}.cls-1,.cls-2,.cls-3{stroke:#303030;stroke-width:2px;}.cls-1{stroke-linejoin:round;}.cls-2,.cls-3{stroke-miterlimit:10;}.cls-3,.cls-4{fill:#c64600;}.cls-5{fill:#303030;}</style></defs><path class="cls-1" d="M28.3,23H49L26,0V20.7A2.31,2.31,0,0,0,28.3,23Z" transform="translate(-3 1)"/><path class="cls-2" d="M49,31.77V23L26,0H6A2,2,0,0,0,4,2V62a2,2,0,0,0,2,2H47a2,2,0,0,0,2-2V46.92" transform="translate(-3 1)"/><polyline class="cls-3" points="54.47 39.45 37.15 56.77 26.87 59.47 29.58 49.19 46.89 31.88"/><line class="cls-3" x1="50.68" y1="35.66" x2="33.37" y2="52.98"/><line class="cls-3" x1="47.97" y1="29.71" x2="56.63" y2="38.37"/><path class="cls-4" d="M54,27.09l1.54-1.54a.4.4,0,0,1,.29-.12.37.37,0,0,1,.29.12l6.67,6.66a.41.41,0,0,1,0,.58l-1.55,1.54Z" transform="translate(-3 1)"/><path class="cls-5" d="M55.84,26.67l5.83,5.83-.42.42-5.82-5.83.41-.42m0-2.24a1.36,1.36,0,0,0-1,.41L52.6,27.09l8.65,8.66L63.5,33.5a1.42,1.42,0,0,0,0-2l-6.66-6.66a1.4,1.4,0,0,0-1-.41Z" transform="translate(-3 1)"/><polygon class="cls-3" points="33.73 57.67 28.68 52.62 26.87 59.47 33.73 57.67"/></svg>