<svg id="Layer_3" data-name="Layer 3" xmlns="http://www.w3.org/2000/svg" viewBox="0 0 63.61 64"><defs><style>.cls-1{fill:#fff;}.cls-2{fill:#303030;}.cls-3{fill:#c64600;}.cls-4{fill:none;stroke:#303030;stroke-miterlimit:10;stroke-width:2px;stroke-dasharray:3;}</style></defs><path class="cls-1" d="M1.86,23.38A.83.83,0,0,1,1,22.55V1.47A.46.46,0,0,1,1.5,1H13.19a.47.47,0,0,1,.47.47V5.88h13.8a.83.83,0,0,1,.83.82V22.55a.84.84,0,0,1-.83.83Z" transform="translate(-0.04)"/><path class="cls-2" d="M12.66,2V6.88H27.29v15.5H2V2H12.66m.53-2H1.5A1.46,1.46,0,0,0,0,1.47V22.55a1.82,1.82,0,0,0,1.82,1.83h25.6a1.83,1.83,0,0,0,1.83-1.83V6.7a1.82,1.82,0,0,0-1.83-1.82H14.66V1.47A1.47,1.47,0,0,0,13.19,0Z" transform="translate(-0.04)"/><path class="cls-1" d="M1.84,23.38a.6.6,0,0,1-.43-.2.58.58,0,0,1-.13-.45l2-13.93a.57.57,0,0,1,.56-.49H29.92a.55.55,0,0,1,.42.2.54.54,0,0,1,.14.45l-2,13.93a.57.57,0,0,1-.56.49Z" transform="translate(-0.04)"/><path class="cls-2" d="M29.42,9.31,27.55,22.38H2.34L4.21,9.31H29.42m.5-2H3.83A1.57,1.57,0,0,0,2.28,8.66l-2,13.93a1.57,1.57,0,0,0,1.55,1.79H27.93A1.57,1.57,0,0,0,29.48,23l2-13.93a1.57,1.57,0,0,0-1.55-1.79Z" transform="translate(-0.04)"/><path class="cls-3" d="M1.61,23.38a.14.14,0,0,1-.11-.06.15.15,0,0,1,0-.13L5.63,10.76H32.76L28.57,23.37h-27Z" transform="translate(-0.04)"/><path class="cls-2" d="M31.39,11.75,27.84,22.38h-25L6.35,11.75h25m1.37-2H5.64a1,1,0,0,0-1,.69L.53,22.88a1.15,1.15,0,0,0,1.08,1.5h27a1,1,0,0,0,1-.7l4.2-12.6a1,1,0,0,0-1-1.33Z" transform="translate(-0.04)"/><path class="cls-1" d="M31.74,63a.83.83,0,0,1-.83-.83V41.09a.47.47,0,0,1,.47-.47H43.07a.47.47,0,0,1,.47.47V45.5H57.33a.83.83,0,0,1,.83.83V62.17a.83.83,0,0,1-.83.83Z" transform="translate(-0.04)"/><path class="cls-2" d="M42.54,41.62V46.5H57.16V62H31.91V41.62H42.54m.53-2H31.38a1.47,1.47,0,0,0-1.47,1.47V62.17A1.83,1.83,0,0,0,31.74,64H57.33a1.83,1.83,0,0,0,1.83-1.83V46.33a1.83,1.83,0,0,0-1.83-1.83H44.54V41.09a1.47,1.47,0,0,0-1.47-1.47Z" transform="translate(-0.04)"/><path class="cls-1" d="M31.72,63a.57.57,0,0,1-.56-.65l2-13.93a.56.56,0,0,1,.56-.48H59.79a.56.56,0,0,1,.43.19.59.59,0,0,1,.13.45l-2,13.93a.57.57,0,0,1-.56.49Z" transform="translate(-0.04)"/><path class="cls-2" d="M59.29,48.94,57.43,62H32.22l1.86-13.06H59.29m.5-2H33.71a1.56,1.56,0,0,0-1.55,1.34l-2,13.93A1.56,1.56,0,0,0,31.72,64H57.8a1.56,1.56,0,0,0,1.55-1.35l2-13.92a1.56,1.56,0,0,0-1.55-1.79Z" transform="translate(-0.04)"/><path class="cls-3" d="M31.49,63a.11.11,0,0,1-.11-.06.11.11,0,0,1,0-.12L35.5,50.38H62.63L58.44,63H31.49Z" transform="translate(-0.04)"/><path class="cls-2" d="M61.26,51.38,57.72,62h-25l3.55-10.62h25m1.37-2H35.51a1,1,0,0,0-1,.69L30.41,62.5A1.14,1.14,0,0,0,31.49,64H58.43a1,1,0,0,0,1-.69l4.2-12.61a1,1,0,0,0-1-1.32Z" transform="translate(-0.04)"/><polyline class="cls-4" points="7.96 28 7.96 55 24.96 55"/></svg>