<svg id="Layer_18" data-name="Layer 18" xmlns="http://www.w3.org/2000/svg" viewBox="0 0 64 64"><defs><style>.cls-1{fill:#fff;}.cls-2{fill:#333;}.cls-3{fill:#fdcd5f;}.cls-4{fill:#4d8cee;}.cls-5{fill:#2fa166;}</style></defs><rect class="cls-1" width="64" height="64"/><path class="cls-2" d="M6.72,44.11a3.29,3.29,0,0,1,2.67,1.28l-.68.43a2.55,2.55,0,0,0-2-1,2.8,2.8,0,0,0,0,5.59,2.71,2.71,0,0,0,1.84-.74v-1.4H6.2v-.76H9.42V50a3.59,3.59,0,0,1-2.7,1.18,3.56,3.56,0,0,1,0-7.11Z"/><path class="cls-2" d="M10.41,48.6a2.46,2.46,0,1,1,2.46,2.61A2.44,2.44,0,0,1,10.41,48.6Zm4.11,0a1.73,1.73,0,0,0-1.65-1.92,1.94,1.94,0,0,0,0,3.84A1.73,1.73,0,0,0,14.52,48.6Z"/><path class="cls-2" d="M16.22,48.6a2.46,2.46,0,1,1,2.46,2.61A2.44,2.44,0,0,1,16.22,48.6Zm4.11,0a1.67,1.67,0,1,0-1.65,1.92A1.73,1.73,0,0,0,20.33,48.6Z"/><path class="cls-2" d="M22.69,51.79a1.93,1.93,0,0,0,1.62.68A1.42,1.42,0,0,0,25.91,51v-.71a2.09,2.09,0,0,1-1.67.88A2.27,2.27,0,0,1,22,48.58C22,47,22.93,46,24.24,46a2.05,2.05,0,0,1,1.67.88v-.75h.77V51c0,1.64-1.15,2.16-2.37,2.16a2.58,2.58,0,0,1-2-.74Zm3.22-4.3a1.83,1.83,0,0,0-1.49-.81c-1,0-1.59.79-1.59,1.9s.6,1.89,1.59,1.89a1.86,1.86,0,0,0,1.49-.81Z"/><path class="cls-2" d="M28.14,44.22h.78v6.87h-.78Z"/><path class="cls-2" d="M32.54,46a2.42,2.42,0,0,1,2.39,2.67v.19h-4a1.76,1.76,0,0,0,1.8,1.73A2.18,2.18,0,0,0,34.23,50l.37.5a2.67,2.67,0,0,1-2,.76,2.46,2.46,0,0,1-2.53-2.61A2.49,2.49,0,0,1,32.54,46Zm-1.64,2.3h3.27a1.62,1.62,0,0,0-1.64-1.66A1.66,1.66,0,0,0,30.9,48.29Z"/><path class="cls-2" d="M38.7,44.22h2.35a3.44,3.44,0,1,1,0,6.87H38.7Zm2.35,6.11a2.68,2.68,0,0,0,0-5.35h-1.5v5.35Z"/><path class="cls-2" d="M45.8,46.12h.77v.8A2.11,2.11,0,0,1,48.23,46v.79a1.48,1.48,0,0,0-.31,0,1.83,1.83,0,0,0-1.35.8v3.52H45.8Z"/><path class="cls-2" d="M49,44.76a.52.52,0,1,1,1,0,.52.52,0,1,1-1,0Zm.13,1.36h.78v5h-.78Z"/><path class="cls-2" d="M50.61,46.12h.83l1.66,4.07,1.65-4.07h.84l-2.07,5h-.84Z"/><path class="cls-2" d="M58.48,46a2.42,2.42,0,0,1,2.39,2.67v.19h-4a1.76,1.76,0,0,0,1.79,1.73A2.2,2.2,0,0,0,60.17,50l.37.5a2.7,2.7,0,0,1-2,.76A2.47,2.47,0,0,1,56,48.6,2.49,2.49,0,0,1,58.48,46Zm-1.64,2.3H60.1a1.61,1.61,0,0,0-1.63-1.66A1.66,1.66,0,0,0,56.84,48.29Z"/><polygon class="cls-3" points="36.04 16.18 28.78 16.18 36.08 28.2 42.98 28.2 36.04 16.18"/><polygon class="cls-4" points="42.98 28.2 28.43 28.2 24.79 34.19 24.75 34.25 24.79 34.32 39.49 34.32 43 28.24 42.98 28.2"/><polygon class="cls-5" points="28.78 16.18 28.68 16.18 21.5 28.62 24.75 34.25 32.25 21.9 28.78 16.18"/></svg>