<svg id="Layer_15" data-name="Layer 15" xmlns="http://www.w3.org/2000/svg" viewBox="0 0 53 64"><defs><style>.cls-1{fill:none;stroke:#c64600;stroke-miterlimit:10;stroke-width:2px;}.cls-2{fill:#c64600;}</style></defs><line class="cls-1" x1="22.5" y1="63" x2="30.5" y2="63"/><line class="cls-1" x1="20.5" y1="58" x2="32.5" y2="58"/><line class="cls-1" x1="20.5" y1="54" x2="32.5" y2="54"/><path class="cls-2" d="M32,12A13.49,13.49,0,0,1,42.31,34.2,23.94,23.94,0,0,0,36.55,48H27.46a23.38,23.38,0,0,0-5.7-13.72,13.45,13.45,0,0,1-3.25-9.39A13.59,13.59,0,0,1,31.32,12L32,12m0-2-.78,0A15.61,15.61,0,0,0,16.52,24.8a15.35,15.35,0,0,0,3.73,10.79A21.14,21.14,0,0,1,25.5,49.37V50h13v-.62a21.53,21.53,0,0,1,5.34-13.89A15.49,15.49,0,0,0,32,10Z" transform="translate(-5.5)"/><path class="cls-2" d="M32,6c.34,0,.67,0,1,0V0H31V6.05C31.33,6,31.66,6,32,6Z" transform="translate(-5.5)"/><path class="cls-2" d="M47.17,12.75l4.28-4.28L50,7.05l-4.28,4.28A19,19,0,0,1,47.17,12.75Z" transform="translate(-5.5)"/><path class="cls-2" d="M16.83,40.25l-4.28,4.28L14,46l4.28-4.28A19,19,0,0,1,16.83,40.25Z" transform="translate(-5.5)"/><path class="cls-2" d="M52.45,25.5c0,.33,0,.66,0,1s0,.67,0,1h6v-2Z" transform="translate(-5.5)"/><path class="cls-2" d="M11.5,26.5c0-.34,0-.67.05-1H5.5v2h6.05C11.53,27.17,11.5,26.84,11.5,26.5Z" transform="translate(-5.5)"/><path class="cls-2" d="M18.25,11.33,14,7.05,12.55,8.47l4.28,4.28A19,19,0,0,1,18.25,11.33Z" transform="translate(-5.5)"/><path class="cls-2" d="M45.75,41.67,50,46l1.42-1.42-4.28-4.28A19,19,0,0,1,45.75,41.67Z" transform="translate(-5.5)"/><path class="cls-1" d="M36.86,25.85A4.8,4.8,0,0,0,36,23.41l1.05-1.05-.92-.92-1,1a4.85,4.85,0,0,0-2.49-1.09V20h-1.3v1.35a4.85,4.85,0,0,0-2.49,1.09l-1-1-.92.92,1,1.05a4.8,4.8,0,0,0-.85,2.44H25.5v1.3h1.72a5,5,0,0,0,1.05,2.16l-1.33,1.33.92.92,1.37-1.37a4.89,4.89,0,0,0,2.12.81v2h1.3V31a4.89,4.89,0,0,0,2.12-.81l1.37,1.37.92-.92-1.33-1.33a5,5,0,0,0,1.05-2.16H38.5v-1.3Z" transform="translate(-5.5)"/></svg>