<svg id="Layer_8" data-name="Layer 8" xmlns="http://www.w3.org/2000/svg" viewBox="0 0 64 66.17"><defs><style>.cls-1,.cls-4{fill:#c64600;}.cls-1,.cls-2,.cls-3,.cls-5{stroke:#303030;stroke-width:2.17px;}.cls-1,.cls-2,.cls-3{stroke-linejoin:round;}.cls-2,.cls-5{fill:none;}.cls-3{fill:#fff;}.cls-5{stroke-miterlimit:10;}</style></defs><polygon class="cls-1" points="54.24 14.1 23.86 1.08 1.08 29.29 39.05 41.22 54.24 14.1"/><polygon class="cls-2" points="62.91 44.48 54.24 14.1 39.05 41.22 1.08 29.29 10.85 65.08 62.91 44.48"/><polygon class="cls-3" points="39.05 41.22 50.17 21.37 44.48 3.25 2.17 11.93 7.79 31.4 39.05 41.22"/><path class="cls-4" d="M14.33,15.94l-1.05,6.6-.77.15L8.94,17.05l1.26,6.12-1.75.36L6.7,15l2.45-.5,3.08,4.89.91-5.72,2.46-.5,1.75,8.5-1.76.36Z" transform="translate(1.08 1.08)"/><path class="cls-4" d="M17.22,12.86,23,11.66l.32,1.56-4.06.84.38,1.84,4-.82L24,16.64l-4,.82.41,2,4.06-.84.33,1.57L19,21.36Z" transform="translate(1.08 1.08)"/><path class="cls-4" d="M32,12.29,31,18.89l-.77.15L26.64,13.4l1.26,6.12-1.75.36-1.75-8.5,2.45-.5,3.09,4.89.9-5.72,2.46-.5,1.75,8.5-1.76.36Z" transform="translate(1.08 1.08)"/><path class="cls-4" d="M38.78,8.27A4.3,4.3,0,0,1,44,11.78a4.38,4.38,0,1,1-8.58,1.77A4.28,4.28,0,0,1,38.78,8.27Zm.34,1.6a2.59,2.59,0,0,0-1.91,3.31,2.56,2.56,0,1,0,5-1A2.6,2.6,0,0,0,39.12,9.87Z" transform="translate(1.08 1.08)"/><polyline class="cls-5" points="10.85 65.08 23.86 36.88 39.05 41.22 46.64 28.2 62.91 44.48"/></svg>