<svg id="Layer_13" data-name="Layer 13" xmlns="http://www.w3.org/2000/svg" viewBox="0 0 63 63"><defs><style>.cls-1{fill:none;stroke:#c64600;stroke-miterlimit:10;stroke-width:2px;}</style></defs><path class="cls-1" d="M12.12,55.13A30.79,30.79,0,0,1,8,50.84l4.71-3.71A25.11,25.11,0,0,0,16,50.58ZM4.81,45.84A29.87,29.87,0,0,1,2.65,40.3l5.77-1.63a24.5,24.5,0,0,0,1.74,4.44ZM1.6,34.45c-.07-.81-.1-1.64-.1-2.45a30.82,30.82,0,0,1,.2-3.48l6,.68A23.65,23.65,0,0,0,7.5,32c0,.66,0,1.32.08,2Zm7.06-9.92L2.94,22.71A30.32,30.32,0,0,1,5.3,17.25l5.25,2.91A23.46,23.46,0,0,0,8.66,24.53Zm4.59-8.3L8.66,12.36a31.45,31.45,0,0,1,4.25-4.15l3.76,4.68A25.1,25.1,0,0,0,13.25,16.23Zm7.41-6L17.88,5a30.57,30.57,0,0,1,5.51-2.23l1.69,5.76A24.5,24.5,0,0,0,20.66,10.28Z" transform="translate(-0.5 -0.5)"/><path class="cls-1" d="M32,62.5A30.24,30.24,0,0,1,22.63,61a32,32,0,0,1-3.15-1.22L22,54.34a23.32,23.32,0,0,0,2.35.92A24.5,24.5,0,1,0,32,7.5v-6a30.5,30.5,0,0,1,0,61Z" transform="translate(-0.5 -0.5)"/><polygon class="cls-1" points="27.5 47.74 14.38 34.62 18.62 30.38 27.5 39.26 44.88 21.88 49.12 26.12 27.5 47.74"/></svg>