<svg id="Layer_24" data-name="Layer 24" xmlns="http://www.w3.org/2000/svg" viewBox="0 0 66 66"><defs><style>.cls-1{fill:#fff;}.cls-1,.cls-2,.cls-3{stroke:#303030;}.cls-1,.cls-2,.cls-3,.cls-5{stroke-miterlimit:10;stroke-width:2px;}.cls-2{fill:#333;}.cls-3,.cls-5{fill:none;}.cls-4{fill:#303030;}.cls-5{stroke:#c64600;}</style></defs><path class="cls-1" d="M49,28.14H45.6a14.64,14.64,0,0,0-1.25-3l2.37-2.38a1,1,0,0,0,0-1.46l-4-4a1,1,0,0,0-1.46,0l-2.38,2.37a14.64,14.64,0,0,0-3-1.25V15a1,1,0,0,0-1-1H29.18a1,1,0,0,0-1,1V18.4a14.64,14.64,0,0,0-3,1.25l-2.38-2.37a1,1,0,0,0-1.46,0l-4,4a1,1,0,0,0,0,1.46l2.37,2.38a14.64,14.64,0,0,0-1.25,3H15a1,1,0,0,0-1,1v5.64a1,1,0,0,0,1,1H18.4a14.64,14.64,0,0,0,1.25,3l-2.37,2.38a1,1,0,0,0,0,1.46l4,4a1,1,0,0,0,1.46,0l2.38-2.37a14.64,14.64,0,0,0,3,1.25V49a1,1,0,0,0,1,1h5.64a1,1,0,0,0,1-1V45.6a14.64,14.64,0,0,0,3-1.25l2.38,2.37a1,1,0,0,0,1.46,0l4-4a1,1,0,0,0,0-1.46l-2.37-2.38a14.64,14.64,0,0,0,1.25-3H49a1,1,0,0,0,1-1V29.18A1,1,0,0,0,49,28.14Z" transform="translate(1 1)"/><circle class="cls-2" cx="33" cy="33" r="9.9"/><circle class="cls-1" cx="33" cy="33" r="4.5"/><path class="cls-3" d="M20.42,54.27A24,24,0,0,0,49,50.22" transform="translate(1 1)"/><polygon class="cls-4" points="19.91 59.75 16.03 51.22 25.36 52.12 19.91 59.75"/><path class="cls-3" d="M43.58,9.73a24,24,0,0,0-28.55,4" transform="translate(1 1)"/><polygon class="cls-4" points="46.09 6.25 49.97 14.78 40.64 13.88 46.09 6.25"/><line class="cls-5" x1="10" y1="10" x2="56" y2="56"/><line class="cls-5" x1="10" y1="56" x2="56" y2="10"/><circle class="cls-5" cx="33" cy="33" r="32"/></svg>