<svg id="Layer_25" data-name="Layer 25" xmlns="http://www.w3.org/2000/svg" viewBox="0 0 66 66"><defs><style>.cls-1,.cls-4{fill:none;}.cls-1,.cls-2{stroke:#303030;}.cls-1{stroke-linejoin:round;}.cls-1,.cls-2,.cls-3{stroke-width:1.42px;}.cls-2,.cls-3{fill:#333;}.cls-2,.cls-3,.cls-4{stroke-miterlimit:10;}.cls-3{stroke:#333;}.cls-4{stroke:#c64600;stroke-width:2px;}</style></defs><path class="cls-1" d="M17.76,19.51l12.17-.84L29.3,14.9H9.51l7.13,38.79-.75-32.12A2,2,0,0,1,17.76,19.51Z" transform="translate(1 1)"/><path class="cls-2" d="M16.64,53.69l-.75-32.12a2,2,0,0,1,1.87-2.06l12.17-.84-.32-1.93L10.06,17.89Z" transform="translate(1 1)"/><polygon class="cls-3" points="50.61 53.63 44.09 49.42 36.92 52.41 38.9 44.9 33.84 39.01 41.6 38.58 45.64 31.94 48.44 39.19 56 40.98 49.98 45.88 50.61 53.63"/><path class="cls-1" d="M37.9,43.9,32.84,38l7.76-.43,4-6.64,2.8,7.24,2.81.67,2.8-25.54H39.6l-.8,4.75-21,1.45a2,2,0,0,0-1.87,2.06l.75,32.12,20.41-6.54Z" transform="translate(1 1)"/><line class="cls-4" x1="10" y1="10" x2="56" y2="56"/><line class="cls-4" x1="10" y1="56" x2="56" y2="10"/><circle class="cls-4" cx="33" cy="33" r="32"/></svg>