<svg id="Layer_7" data-name="Layer 7" xmlns="http://www.w3.org/2000/svg" viewBox="0 0 63.23 63.86"><defs><style>.cls-1,.cls-5{fill:#c64600;}.cls-2{fill:#303030;}.cls-3,.cls-4{fill:#fff;}.cls-4,.cls-5{stroke:#303030;stroke-miterlimit:10;stroke-width:2px;}</style></defs><rect class="cls-1" x="10.4" y="13.83" width="47.65" height="45.45" transform="translate(-4.51 5.79) rotate(-8.98)"/><path class="cls-2" d="M53.38,11.53l6.78,42.92L15.07,61.58,8.29,18.66l45.09-7.13M55,9.25,6,17l7.41,46.86,49-7.75L55,9.25Z" transform="translate(0.78 0)"/><polygon class="cls-3" points="7.57 54.19 7.57 9.83 55.8 9.83 55.8 35.46 37.07 54.19 7.57 54.19"/><path class="cls-2" d="M54,10.83V35L35.87,53.19H7.79V10.83H54m2-2H5.79V55.19H36.7L56,35.87v-27Z" transform="translate(0.78 0)"/><polygon class="cls-3" points="37.78 37 53.69 37 37.78 52.9 37.78 37"/><path class="cls-2" d="M50.49,38,38,50.49V38H50.49m4.83-2H36V55.32L55.32,36Z" transform="translate(0.78 0)"/><line class="cls-4" x1="25.89" y1="16.55" x2="49.07" y2="16.55"/><line class="cls-4" x1="14.3" y1="24.28" x2="49.07" y2="24.28"/><line class="cls-4" x1="14.3" y1="32.01" x2="49.07" y2="32.01"/><line class="cls-4" x1="14.3" y1="39.73" x2="37.48" y2="39.73"/><line class="cls-4" x1="14.3" y1="47.46" x2="37.48" y2="47.46"/><ellipse class="cls-5" cx="5.51" cy="6.3" rx="6.62" ry="3.5" transform="translate(-2.06 5.74) rotate(-45)"/><path class="cls-5" d="M20.93,9.6A16.23,16.23,0,0,1,10.3,5.48,11.06,11.06,0,0,1,8,8.77,10.8,10.8,0,0,1,4.65,11.1c1.63,2,4.17,5.94,4.17,10.61,0,2.61,4.13-.41,7.7-4.09S23.13,9.6,20.93,9.6Z" transform="translate(0.78 0)"/><line class="cls-4" x1="21.16" y1="21.16" x2="17.58" y2="17.58"/></svg>