<svg id="Layer_17" data-name="Layer 17" xmlns="http://www.w3.org/2000/svg" viewBox="0 0 64 64"><defs><style>.cls-1{fill:#fff;}.cls-2{fill:#208b8d;}.cls-3{fill:#176c6e;}.cls-4{fill:#2d9b9f;}.cls-5{fill:#48c6ce;}.cls-6{fill:#333;}.cls-7{fill:#1e89d8;}.cls-8{fill:#1e7fd3;}.cls-9{fill:#2ea2e4;}.cls-10{fill:#136eba;}</style></defs><rect class="cls-1" width="64" height="64"/><rect class="cls-2" x="22.25" y="19.95" width="10.02" height="9.83" rx="0.65"/><path class="cls-1" d="M25.57,26.46a3.22,3.22,0,0,0,1.47.41c.64,0,.92-.26.92-.63s-.23-.6-.94-.84c-1.12-.39-1.6-1-1.58-1.68a1.92,1.92,0,0,1,2.17-1.81,3.45,3.45,0,0,1,1.52.34l-.28,1A2.62,2.62,0,0,0,27.63,23c-.52,0-.8.25-.8.6s.27.55,1,.81c1,.38,1.53.91,1.54,1.76,0,1-.82,1.79-2.34,1.79a3.68,3.68,0,0,1-1.75-.4Z"/><path class="cls-3" d="M32,15.34A5.56,5.56,0,0,0,26.53,20h5.09a.65.65,0,0,1,.65.65v3.62a4.85,4.85,0,0,1,4.61-3.31,5.34,5.34,0,0,1,.69.05v-.05A5.56,5.56,0,0,0,32,15.34Z"/><path class="cls-4" d="M36.88,20.91a4.85,4.85,0,0,0-4.61,3.31v2.93a3.94,3.94,0,0,1,.6,0,3.71,3.71,0,0,1,3.7,3.53l.31,0a4.87,4.87,0,0,0,0-9.74Z"/><path class="cls-5" d="M32.87,27.1a3.94,3.94,0,0,0-.6,0v2a.65.65,0,0,1-.65.65H29.31a3.52,3.52,0,0,0-.15,1,3.71,3.71,0,1,0,3.71-3.71Z"/><path class="cls-6" d="M14.37,44.11A3.55,3.55,0,1,1,11,47.66,3.35,3.35,0,0,1,14.37,44.11Zm0,.76a2.54,2.54,0,0,0-2.52,2.79,2.54,2.54,0,1,0,5,0A2.54,2.54,0,0,0,14.37,44.87Z"/><path class="cls-6" d="M22.45,47.83c0-.87-.45-1.15-1.12-1.15a1.93,1.93,0,0,0-1.47.77v3.64h-.77v-5h.77v.72A2.44,2.44,0,0,1,21.63,46a1.42,1.42,0,0,1,1.59,1.61v3.49h-.77Z"/><path class="cls-6" d="M26.93,46a2.42,2.42,0,0,1,2.39,2.67v.19h-4a1.76,1.76,0,0,0,1.79,1.73A2.19,2.19,0,0,0,28.62,50l.37.5a2.7,2.7,0,0,1-2,.76,2.46,2.46,0,0,1-2.53-2.61A2.49,2.49,0,0,1,26.93,46Zm-1.64,2.3h3.26a1.61,1.61,0,0,0-1.63-1.66A1.66,1.66,0,0,0,25.29,48.29Z"/><path class="cls-6" d="M30.59,44.22h2.35a3.44,3.44,0,1,1,0,6.87H30.59Zm2.35,6.11a2.68,2.68,0,0,0,0-5.35H31.45v5.35Z"/><path class="cls-6" d="M37.77,46.12h.78v.8A2.09,2.09,0,0,1,40.2,46v.79a1.35,1.35,0,0,0-.31,0,1.81,1.81,0,0,0-1.34.8v3.52h-.78Z"/><path class="cls-6" d="M41,44.76a.52.52,0,1,1,1,0,.52.52,0,1,1-1,0Zm.13,1.36h.77v5h-.77Z"/><path class="cls-6" d="M42.75,46.12h.83l1.66,4.07,1.65-4.07h.84l-2.07,5h-.84Z"/><path class="cls-6" d="M50.7,46a2.42,2.42,0,0,1,2.39,2.67v.19h-4a1.76,1.76,0,0,0,1.79,1.73A2.19,2.19,0,0,0,52.39,50l.37.5a2.68,2.68,0,0,1-2,.76,2.46,2.46,0,0,1-2.53-2.61A2.49,2.49,0,0,1,50.7,46Zm-1.64,2.3h3.27a1.62,1.62,0,0,0-1.64-1.66A1.66,1.66,0,0,0,49.06,48.29Z"/><path class="cls-7" d="M46.1,30.56a6.1,6.1,0,0,0-4.78-8.74l0-.07-.12,0-6.6,2.61Z"/><path class="cls-8" d="M34.57,24.39,24.53,19a7.48,7.48,0,0,0-6,11.69Z"/><path class="cls-9" d="M40.61,34a6.11,6.11,0,0,0,5.49-3.44L34.57,24.39l-16,6.32A7.49,7.49,0,0,0,24.5,34H40.61Z"/><path class="cls-10" d="M41.17,21.78l.12,0,0,.07A9.43,9.43,0,0,0,24.65,19h-.12l10,5.37Z"/></svg>