<svg id="Layer_6" data-name="Layer 6" xmlns="http://www.w3.org/2000/svg" viewBox="0 0 66.08 59"><defs><style>.cls-1{fill:#c64600;}.cls-1,.cls-2,.cls-3,.cls-4{stroke:#303030;stroke-width:2px;}.cls-1,.cls-4{stroke-miterlimit:10;}.cls-2,.cls-4{fill:none;}.cls-2,.cls-3{stroke-linejoin:round;}.cls-3{fill:#fff;}</style></defs><path class="cls-1" d="M60.35,45.05H39.73a8.25,8.25,0,1,0,.91,7.32H42L45.7,56l3.66-3.66L53,56l3.67-3.66L60.35,56,64,48.71Z" transform="translate(0.85 -4)"/><path class="cls-2" d="M24.64,49.62a8.24,8.24,0,0,1,15.09-4.57h7.4L48,42.49l4.92,1.62,1.62-4.92,4.92,1.62,0-8.19L54.49,31,36.07,40.28A8.24,8.24,0,0,0,24.65,51.16c.07.12.15.24.22.37A8.05,8.05,0,0,1,24.64,49.62Z" transform="translate(0.85 -4)"/><circle class="cls-3" cx="31.44" cy="45.17" r="3.21"/><path class="cls-4" d="M25.07,52.26a8.58,8.58,0,0,1-1.35.11,8.23,8.23,0,1,1,4.34-1.23" transform="translate(0.85 -4)"/><path class="cls-2" d="M58.66,32.38,61.62,5h-19L41.5,11.71l-29.71,2a2.85,2.85,0,0,0-2.64,2.9L10.21,62l17.61-5.87" transform="translate(0.85 -4)"/><path class="cls-2" d="M11.79,13.75,29,12.57l-.89-5.33H.15L10.21,62,9.15,16.65A2.85,2.85,0,0,1,11.79,13.75Z" transform="translate(0.85 -4)"/><path class="cls-1" d="M10.21,62,9.15,16.65a2.85,2.85,0,0,1,2.64-2.9L29,12.57l-.46-2.73L.92,11.46Z" transform="translate(0.85 -4)"/></svg>