<svg id="Layer_27" data-name="Layer 27" xmlns="http://www.w3.org/2000/svg" viewBox="0 0 59.53 59.53"><defs><style>.cls-1{fill:none;stroke:#333;stroke-miterlimit:10;stroke-width:2px;}</style></defs><path class="cls-1" d="M52.79,29.9a18.82,18.82,0,0,0-.14-2.27,1.14,1.14,0,0,1,.69-1.19L59.25,24a1.12,1.12,0,0,0,.61-1.47l-3.18-7.68a1.12,1.12,0,0,0-1.47-.61l-5.93,2.45A1.12,1.12,0,0,1,48,16.33a22.28,22.28,0,0,0-3.22-3.22,1.14,1.14,0,0,1-.35-1.31l2.46-5.93a1.13,1.13,0,0,0-.61-1.47L38.57,1.22a1.13,1.13,0,0,0-1.48.61L34.64,7.75a1.13,1.13,0,0,1-1.19.68,21.09,21.09,0,0,0-2.26-.14,21.12,21.12,0,0,0-2.27.14,1.13,1.13,0,0,1-1.19-.68L25.28,1.83a1.13,1.13,0,0,0-1.48-.61L16.12,4.4a1.13,1.13,0,0,0-.61,1.47L18,11.8a1.14,1.14,0,0,1-.35,1.31,22.28,22.28,0,0,0-3.22,3.22,1.12,1.12,0,0,1-1.31.35L7.16,14.23a1.12,1.12,0,0,0-1.47.61L2.51,22.52A1.12,1.12,0,0,0,3.12,24L9,26.44a1.13,1.13,0,0,1,.69,1.19,18.47,18.47,0,0,0,0,4.54A1.12,1.12,0,0,1,9,33.35L3.12,35.8a1.13,1.13,0,0,0-.61,1.48L5.69,45a1.13,1.13,0,0,0,1.47.61l5.93-2.46a1.14,1.14,0,0,1,1.31.35,21.78,21.78,0,0,0,3.22,3.22A1.14,1.14,0,0,1,18,48l-2.46,5.93a1.14,1.14,0,0,0,.61,1.48l7.68,3.18A1.14,1.14,0,0,0,25.28,58l2.45-5.92a1.14,1.14,0,0,1,1.19-.69,18.39,18.39,0,0,0,4.53,0,1.14,1.14,0,0,1,1.19.69L37.09,58a1.14,1.14,0,0,0,1.48.61l7.68-3.18a1.14,1.14,0,0,0,.61-1.48L44.4,48a1.14,1.14,0,0,1,.35-1.31A21.78,21.78,0,0,0,48,43.46a1.14,1.14,0,0,1,1.31-.35l5.93,2.46A1.13,1.13,0,0,0,56.68,45l3.18-7.68a1.13,1.13,0,0,0-.61-1.48l-5.91-2.45a1.13,1.13,0,0,1-.69-1.18A19,19,0,0,0,52.79,29.9Z" transform="translate(-1.42 -0.13)"/><circle class="cls-1" cx="30.08" cy="30.37" r="10"/></svg>