<svg id="Layer_1" data-name="Layer 1" xmlns="http://www.w3.org/2000/svg" viewBox="0 0 66 58"><defs><style>.cls-1{fill:#c64600;}.cls-1,.cls-2{stroke:#303030;stroke-miterlimit:10;stroke-width:2px;}.cls-2{fill:#fff;}</style></defs><path class="cls-1" d="M32,8H22A6,6,0,0,1,10,8H2a2,2,0,0,0-2,2v8a6,6,0,0,1,6,6,6,6,0,0,1-6,6V40H33V8Z" transform="translate(1 -7)"/><path class="cls-2" d="M64,18V10a2,2,0,0,0-2-2H54A6,6,0,0,1,42,8H32V18a6,6,0,0,0,0,12V40H64V30a6,6,0,0,1,0-12Z" transform="translate(1 -7)"/><path class="cls-2" d="M20.5,31.2h2a2.07,2.07,0,0,1,2.07,2.07V45.55a15.8,15.8,0,0,1-2.05,8.2V64H4.1V53.75A11.9,11.9,0,0,1,0,44.52V31.2H0a4.11,4.11,0,0,1,4.1,4.1v6.15a2.05,2.05,0,0,0,2.05,2h0a2.05,2.05,0,0,0,2-2V29.15a2.05,2.05,0,0,1,2.05-2H12.3" transform="translate(1 -7)"/><path class="cls-2" d="M16.4,27.1h2.05a2.05,2.05,0,0,1,2.05,2V42" transform="translate(1 -7)"/><path class="cls-2" d="M16.4,42V25.05a2.05,2.05,0,0,0-2-2.05h0a2.05,2.05,0,0,0-2,2.05V42" transform="translate(1 -7)"/><rect class="cls-2" x="5.1" y="46.75" width="18.45" height="10.25"/><path class="cls-2" d="M59.9,40v1.45a2,2,0,1,1-4.1,0V40H39.4v5.55a15.8,15.8,0,0,0,2.05,8.2V64H59.9V53.75A11.9,11.9,0,0,0,64,44.52V40Z" transform="translate(1 -7)"/><rect class="cls-2" x="42.45" y="46.75" width="18.45" height="10.25"/><rect class="cls-2" x="48.6" y="33" width="4.1" height="3"/><rect class="cls-2" x="52.6" y="33" width="4.1" height="3"/><polygon class="cls-2" points="48.9 33 48.9 36 44.5 36 44.5 33 45.04 33 48.9 33"/><path class="cls-2" d="M53.9,49.5c0-4,3.17-4.69,5.08-6.34" transform="translate(1 -7)"/><path class="cls-2" d="M43.9,46.5s4,1,4,4" transform="translate(1 -7)"/></svg>