<svg id="Layer_2" data-name="Layer 2" xmlns="http://www.w3.org/2000/svg" viewBox="0 0 64 57"><defs><style>.cls-1,.cls-4{fill:#fff;}.cls-2{fill:#303030;}.cls-3,.cls-5{fill:#c64600;}.cls-4,.cls-5{stroke:#303030;stroke-miterlimit:10;stroke-width:2px;}</style></defs><polygon class="cls-1" points="6 1 42 1 42 25 12.38 25 6 37.76 6 1"/><path class="cls-2" d="M41,6V28H11.76l-.55,1.11L7,37.53V6H41m2-2H5V46l8-16H43V4Z" transform="translate(0 -4)"/><path class="cls-1" d="M2,51a1,1,0,0,1-1-1V16a1,1,0,0,1,1-1H6V42.24L12.62,29H42V15h4a1,1,0,0,1,1,1V50a1,1,0,0,1-1,1Z" transform="translate(0 -4)"/><path class="cls-2" d="M46,16l0,0,0,34L2,50,2,16H5V46.47l3.79-7.58L13.24,30H43V16h3m0-2H41V28H12L7,38V14H2a2,2,0,0,0-2,2V50a2,2,0,0,0,2,2H46a2,2,0,0,0,2-2V16a2,2,0,0,0-2-2Z" transform="translate(0 -4)"/><path class="cls-3" d="M2,51a.94.94,0,0,1-.37-.07L12.62,29H54.38l-11,22Z" transform="translate(0 -4)"/><path class="cls-2" d="M52.76,30,46.21,43.11,42.76,50H3.24l10-20H52.76M56,28H12L.41,51.19A2,2,0,0,0,2,52H44l4-8,8-16Z" transform="translate(0 -4)"/><path class="cls-4" d="M61.65,43H59.58a11.4,11.4,0,0,0-1-2.36l1.46-1.46a1.35,1.35,0,0,0,0-1.91l-2.33-2.33a1.35,1.35,0,0,0-1.91,0L54.36,36.4a11.4,11.4,0,0,0-2.36-1V33.35A1.36,1.36,0,0,0,50.65,32h-3.3A1.36,1.36,0,0,0,46,33.35v2.07a11.4,11.4,0,0,0-2.36,1l-1.46-1.46a1.35,1.35,0,0,0-1.91,0l-2.33,2.33a1.35,1.35,0,0,0,0,1.91l1.46,1.46a11.4,11.4,0,0,0-1,2.36H36.35A1.36,1.36,0,0,0,35,44.35v3.3A1.36,1.36,0,0,0,36.35,49h2.07a11.4,11.4,0,0,0,1,2.36l-1.46,1.46a1.35,1.35,0,0,0,0,1.91l2.33,2.33a1.35,1.35,0,0,0,1.91,0l1.46-1.46a11.4,11.4,0,0,0,2.36,1v2.07A1.36,1.36,0,0,0,47.35,60h3.3A1.36,1.36,0,0,0,52,58.65V56.58a11.4,11.4,0,0,0,2.36-1l1.46,1.46a1.35,1.35,0,0,0,1.91,0l2.33-2.33a1.35,1.35,0,0,0,0-1.91L58.6,51.36a11.4,11.4,0,0,0,1-2.36h2.07A1.36,1.36,0,0,0,63,47.65v-3.3A1.36,1.36,0,0,0,61.65,43Z" transform="translate(0 -4)"/><circle class="cls-5" cx="49" cy="42" r="7"/><line class="cls-4" x1="12" y1="8" x2="36" y2="8"/><line class="cls-4" x1="12" y1="14" x2="36" y2="14"/><line class="cls-4" x1="12" y1="20" x2="36" y2="20"/></svg>