<svg id="Layer_23" data-name="Layer 23" xmlns="http://www.w3.org/2000/svg" viewBox="0 0 66 66"><defs><style>.cls-1{fill:#333;}.cls-1,.cls-2{stroke:#303030;stroke-width:1.36px;}.cls-1,.cls-2,.cls-3{stroke-miterlimit:10;}.cls-2{fill:#fff;}.cls-3{fill:none;stroke:#c64600;stroke-width:2px;}</style></defs><path class="cls-1" d="M32,17H25.21a4.07,4.07,0,0,1-8.14,0h-5.4a1.38,1.38,0,0,0-1.38,1.38v5.41a4.07,4.07,0,0,1,0,8.14v6.78H32.68V17Z" transform="translate(1 1)"/><path class="cls-2" d="M53.71,23.79V18.37A1.36,1.36,0,0,0,52.35,17H46.93a4.07,4.07,0,0,1-8.14,0H32v6.79a4.07,4.07,0,0,0,0,8.14v6.78H53.71V31.93a4.07,4.07,0,1,1,0-8.14Z" transform="translate(1 1)"/><path class="cls-2" d="M24.2,32.74h1.38a1.4,1.4,0,0,1,1.4,1.4v8.34A10.67,10.67,0,0,1,25.59,48v7H13.07V48a8.05,8.05,0,0,1-2.78-6.26v-9h0a2.79,2.79,0,0,1,2.78,2.78V39.7a1.39,1.39,0,0,0,1.39,1.39h0a1.39,1.39,0,0,0,1.39-1.39V31.35A1.39,1.39,0,0,1,17.24,30h1.39" transform="translate(1 1)"/><path class="cls-2" d="M21.41,30h1.4a1.39,1.39,0,0,1,1.39,1.39v8.7" transform="translate(1 1)"/><path class="cls-2" d="M21.41,40.05V28.57A1.39,1.39,0,0,0,20,27.18h0a1.39,1.39,0,0,0-1.39,1.39V40.05" transform="translate(1 1)"/><rect class="cls-2" x="14.07" y="49.04" width="12.52" height="6.96"/><path class="cls-2" d="M50.93,38.71v1a1.39,1.39,0,0,1-2.78,0v-1H37v3.77A10.67,10.67,0,0,0,38.41,48v7H50.93V48a8.05,8.05,0,0,0,2.78-6.26V38.71Z" transform="translate(1 1)"/><rect class="cls-2" x="39.41" y="49.04" width="12.52" height="6.96"/><rect class="cls-2" x="43.59" y="39.71" width="2.78" height="2.04"/><rect class="cls-2" x="46.3" y="39.71" width="2.78" height="2.04"/><polygon class="cls-2" points="43.79 39.71 43.79 41.75 40.8 41.75 40.8 39.71 41.17 39.71 43.79 39.71"/><path class="cls-2" d="M46.86,45.16c0-2.71,2.15-3.18,3.45-4.3" transform="translate(1 1)"/><path class="cls-2" d="M40.08,43.12s2.71.68,2.71,2.72" transform="translate(1 1)"/><line class="cls-3" x1="10" y1="10" x2="56" y2="56"/><line class="cls-3" x1="10" y1="56" x2="56" y2="10"/><circle class="cls-3" cx="33" cy="33" r="32"/></svg>