<svg id="Layer_22" data-name="Layer 22" xmlns="http://www.w3.org/2000/svg" viewBox="0 0 66 66"><defs><style>.cls-1{fill:none;stroke:#c64600;stroke-miterlimit:10;stroke-width:2px;}</style></defs><path d="M7,18.68h7.67V21H9.81v2.87h4.5v2.31H9.81v5H7Z" transform="translate(1 1)"/><path d="M24.24,25.93H19.62v3h5.16v2.33h-8V18.68h7.75V21h-4.9v2.61h4.62Z" transform="translate(1 1)"/><path d="M26.71,18.85a25,25,0,0,1,3.78-.26,6.42,6.42,0,0,1,4.07,1,3.18,3.18,0,0,1,1.15,2.62,3.33,3.33,0,0,1-2.22,3.09v.06a3.16,3.16,0,0,1,1.68,2.35c.39,1.41.78,3.05,1,3.54h-2.9a16,16,0,0,1-.88-2.93c-.33-1.56-.87-2-2-2h-.85v4.94H26.71Zm2.82,5.4h1.11c1.42,0,2.26-.71,2.26-1.81s-.79-1.73-2.09-1.75a6.49,6.49,0,0,0-1.28.1Z" transform="translate(1 1)"/><path d="M37.76,18.85a23,23,0,0,1,3.83-.26,6,6,0,0,1,3.84,1,3.69,3.69,0,0,1,1.34,2.91,4,4,0,0,1-1.15,3,5.85,5.85,0,0,1-4.08,1.32,8.64,8.64,0,0,1-1-.05v4.49H37.76Zm2.81,5.7a4.13,4.13,0,0,0,1,.07c1.51,0,2.44-.76,2.44-2.05s-.8-1.84-2.22-1.84a5.1,5.1,0,0,0-1.17.11Z" transform="translate(1 1)"/><path d="M50.38,28l-.89,3.23h-3l3.84-12.56h3.73L58,31.24H54.94L54,28Zm3.19-2.12-.79-2.66c-.22-.75-.44-1.68-.63-2.42h0c-.18.74-.37,1.69-.57,2.42l-.75,2.66Z" transform="translate(1 1)"/><path d="M22.6,41.2a22.84,22.84,0,0,1,3.84-.27,6,6,0,0,1,3.83,1,3.68,3.68,0,0,1,1.34,2.91,4,4,0,0,1-1.15,3,5.83,5.83,0,0,1-4.08,1.32,6.7,6.7,0,0,1-1-.06v4.49H22.6Zm2.81,5.7a4.78,4.78,0,0,0,.95.07c1.51,0,2.44-.76,2.44-2s-.8-1.84-2.22-1.84a4.7,4.7,0,0,0-1.17.11Z" transform="translate(1 1)"/><path d="M36.27,41V53.58H33.42V41Z" transform="translate(1 1)"/><path d="M41.57,41V53.58H38.72V41Z" transform="translate(1 1)"/><line class="cls-1" x1="10" y1="10" x2="56" y2="56"/><line class="cls-1" x1="10" y1="56" x2="56" y2="10"/><circle class="cls-1" cx="33" cy="33" r="32"/></svg>