<svg id="Layer_26" data-name="Layer 26" xmlns="http://www.w3.org/2000/svg" viewBox="0 0 64 62.09"><defs><style>.cls-1,.cls-4{fill:#c64600;}.cls-1{stroke:#303030;stroke-linejoin:round;stroke-width:2.64px;}.cls-2{fill:#fff;}.cls-3{fill:#303030;}</style></defs><line class="cls-1" x1="23.53" y1="22.53" x2="23.53" y2="56.58"/><line class="cls-1" x1="12.52" y1="23.03" x2="12.52" y2="57.08"/><rect class="cls-2" x="1" y="23.03" width="34.05" height="10.01"/><path class="cls-3" d="M34.05,24.07v8H2v-8H34.05m1-2H1a1,1,0,0,0-1,1v10a1,1,0,0,0,1,1H35.05a1,1,0,0,0,1-1v-10a1,1,0,0,0-1-1Z" transform="translate(0 -0.03)"/><circle class="cls-4" cx="8.01" cy="28.04" r="0.25"/><path class="cls-3" d="M8,26.07a2,2,0,1,0,2,2,2,2,0,0,0-2-2Z" transform="translate(0 -0.03)"/><circle class="cls-4" cx="14.02" cy="28.04" r="0.25"/><path class="cls-3" d="M14,26.07a2,2,0,1,0,2,2,2,2,0,0,0-2-2Z" transform="translate(0 -0.03)"/><circle class="cls-4" cx="20.03" cy="28.04" r="0.25"/><path class="cls-3" d="M20,26.07a2,2,0,1,0,2,2,2,2,0,0,0-2-2Z" transform="translate(0 -0.03)"/><rect class="cls-2" x="1" y="37.05" width="34.05" height="10.01"/><path class="cls-3" d="M34.05,38.09v8H2v-8H34.05m1-2H1a1,1,0,0,0-1,1v10a1,1,0,0,0,1,1H35.05a1,1,0,0,0,1-1v-10a1,1,0,0,0-1-1Z" transform="translate(0 -0.03)"/><circle class="cls-4" cx="8.01" cy="42.06" r="0.25"/><path class="cls-3" d="M8,40.09a2,2,0,1,0,2,2,2,2,0,0,0-2-2Z" transform="translate(0 -0.03)"/><circle class="cls-4" cx="14.02" cy="42.06" r="0.25"/><path class="cls-3" d="M14,40.09a2,2,0,1,0,2,2,2,2,0,0,0-2-2Z" transform="translate(0 -0.03)"/><circle class="cls-4" cx="20.03" cy="42.06" r="0.25"/><path class="cls-3" d="M20,40.09a2,2,0,1,0,2,2,2,2,0,0,0-2-2Z" transform="translate(0 -0.03)"/><rect class="cls-2" x="1" y="51.08" width="34.05" height="10.01"/><path class="cls-3" d="M34.05,52.11v8H2v-8H34.05m1-2H1a1,1,0,0,0-1,1v10a1,1,0,0,0,1,1H35.05a1,1,0,0,0,1-1v-10a1,1,0,0,0-1-1Z" transform="translate(0 -0.03)"/><circle class="cls-4" cx="8.01" cy="56.08" r="0.25"/><path class="cls-3" d="M8,54.11a2,2,0,1,0,2,2,2,2,0,0,0-2-2Z" transform="translate(0 -0.03)"/><circle class="cls-4" cx="14.02" cy="56.08" r="0.25"/><path class="cls-3" d="M14,54.11a2,2,0,1,0,2,2,2,2,0,0,0-2-2Z" transform="translate(0 -0.03)"/><circle class="cls-4" cx="20.03" cy="56.08" r="0.25"/><path class="cls-3" d="M20,54.11a2,2,0,1,0,2,2,2,2,0,0,0-2-2Z" transform="translate(0 -0.03)"/><ellipse class="cls-4" cx="45.12" cy="11.02" rx="10.12" ry="10.05"/><path class="cls-3" d="M45.12,2A9.08,9.08,0,1,1,36,11.05,9.12,9.12,0,0,1,45.12,2m0-1.94a11,11,0,1,0,11.1,11A11.06,11.06,0,0,0,45.12,0Z" transform="translate(0 -0.03)"/><path class="cls-4" d="M27.27,38.07v-7a7.75,7.75,0,0,1,7.47-8H55.51a7.75,7.75,0,0,1,7.47,8v7Z" transform="translate(0 -0.03)"/><path class="cls-3" d="M55.51,24.1a6.74,6.74,0,0,1,6.45,7v6H28.29v-6a6.73,6.73,0,0,1,6.45-7H55.51m0-2H34.74a8.79,8.79,0,0,0-8.49,9v8H64v-8a8.79,8.79,0,0,0-8.49-9Z" transform="translate(0 -0.03)"/></svg>