<svg id="Layer_21" data-name="Layer 21" xmlns="http://www.w3.org/2000/svg" viewBox="0 0 64 64"><defs><style>.cls-1{fill:#c64600;}.cls-2{fill:#303030;}.cls-3{fill:none;stroke:#303030;stroke-miterlimit:10;stroke-width:2px;}</style></defs><path class="cls-1" d="M32,0V32L54.62,9.38h0A31.89,31.89,0,0,0,32,0Z"/><path class="cls-2" d="M32,2A30,30,0,1,1,2,32,30,30,0,0,1,32,2m0-2A32,32,0,1,0,64,32,32,32,0,0,0,32,0Z"/><path class="cls-2" d="M32,2A30,30,0,1,1,2,32,30,30,0,0,1,32,2m0-2A32,32,0,1,0,64,32,32,32,0,0,0,32,0Z"/><circle class="cls-2" cx="32" cy="32" r="4"/><polyline class="cls-3" points="24 24 32 32 48 16"/><line class="cls-3" x1="32" y1="63" x2="32" y2="52"/><line class="cls-3" x1="32" y1="12" x2="32" y2="1"/><line class="cls-3" x1="63" y1="32" x2="52" y2="32"/><line class="cls-3" x1="12" y1="32" x2="1" y2="32"/></svg>