<svg id="Layer_14" data-name="Layer 14" xmlns="http://www.w3.org/2000/svg" viewBox="0 0 64 48"><defs><style>.cls-1{fill:#c64600;}</style></defs><path class="cls-1" d="M62,10V54H2V10H62m2-2H0V56H64V8Z" transform="translate(0 -8)"/><path class="cls-1" d="M58,20V44H6V20H58m2-2H4V46H60V18Z" transform="translate(0 -8)"/><polygon class="cls-1" points="8 4 4 4 4 8 8 8 8 4 8 4"/><polygon class="cls-1" points="16.67 4 12.67 4 12.67 8 16.67 8 16.67 4 16.67 4"/><polygon class="cls-1" points="25.33 4 21.33 4 21.33 8 25.33 8 25.33 4 25.33 4"/><polygon class="cls-1" points="34 4 30 4 30 8 34 8 34 4 34 4"/><polygon class="cls-1" points="42.67 4 38.67 4 38.67 8 42.67 8 42.67 4 42.67 4"/><polygon class="cls-1" points="51.33 4 47.33 4 47.33 8 51.33 8 51.33 4 51.33 4"/><polygon class="cls-1" points="60 4 56 4 56 8 60 8 60 4 60 4"/><polygon class="cls-1" points="8 40 4 40 4 44 8 44 8 40 8 40"/><polygon class="cls-1" points="16.67 40 12.67 40 12.67 44 16.67 44 16.67 40 16.67 40"/><polygon class="cls-1" points="25.33 40 21.33 40 21.33 44 25.33 44 25.33 40 25.33 40"/><polygon class="cls-1" points="34 40 30 40 30 44 34 44 34 40 34 40"/><polygon class="cls-1" points="42.67 40 38.67 40 38.67 44 42.67 44 42.67 40 42.67 40"/><polygon class="cls-1" points="51.33 40 47.33 40 47.33 44 51.33 44 51.33 40 51.33 40"/><polygon class="cls-1" points="60 40 56 40 56 44 60 44 60 40 60 40"/><path class="cls-1" d="M29.94,28.07l7.67,4.43-7.67,4.43V28.07m-.78-2.57a1.22,1.22,0,0,0-1.22,1.21V38.29a1.22,1.22,0,0,0,1.22,1.21,1.26,1.26,0,0,0,.61-.16l10-5.79a1.21,1.21,0,0,0,0-2.1l-10-5.79a1.26,1.26,0,0,0-.61-.16Z" transform="translate(0 -8)"/></svg>