<svg id="Layer_19" data-name="Layer 19" xmlns="http://www.w3.org/2000/svg" viewBox="0 0 46 46"><defs><style>.cls-1{fill:#c64600;}</style></defs><path class="cls-1" d="M30,10A23,23,0,1,0,53,33,23,23,0,0,0,30,10Zm8,35.42c-.14-.2-.92-1.23-2.32-3.09S32.41,38,30,34.83h0q-3.09,3.89-5.56,7.1t-2.64,3.46L19.6,43.58,21.75,41q2-2.46,6.56-8.11v0q-2.18-2.82-5-6.5t-3.14-4l2.35-1.75c.15.21,1,1.29,2.45,3.22s3.21,4.2,5.21,6.79h0c1.68-2.15,3.36-4.32,5.06-6.51l2.71-3.5,2.14,1.57-3.34,4.19q-3.15,3.94-5,6.24v0l5.86,7.28q2.67,3.32,2.83,3.54Z" transform="translate(-7 -10)"/></svg>